<svg xmlns="http://www.w3.org/2000/svg" viewBox="0 0 20 20">
	<path d="M 12.285 1.914 C 8.693 1.36 6.955 6.909 6.543 7.758 C 5.964 9.2 5.153 8.621 4.728 9.303 C 5.642 9.213 5.565 9.728 7.38 9.252 C 8.487 8.891 8.436 7.527 9.028 6.638 C 10.071 5.132 11.641 6.175 11.461 6.587 C 10.869 7.758 9.504 7.514 9.401 8.209 C 12.105 7.951 12.735 9.599 12.555 10.886 C 12.3277 10.8173 12.31 10.539 11.873 10.68 C 11.821 11.26 11.924 12.161 11.641 12.302 C 11.075 12.624 9.684 12.882 9.066 13.873 C 8.925 11.71 13.212 11.71 10.791 8.608 C 9.813 11.195 8.6117 9.2513 7.496 9.548 C 6.054 10.037 6.646 11.221 4.265 12.019 C 5.076 12.895 4.767 14.053 5.488 14.723 C 6.234 15.482 7.625 15.611 8.719 16.654 C 8.629 16.061 8.255 15.379 7.522 14.633 C 6.711 13.937 6.26 10.719 9.993 10.706 C 7.856 11.672 8.217 13.912 8.925 15.353 C 10.315 13.912 10.933 14.3493 11.963 13.886 C 13.019 13.307 12.195 11.955 12.697 11.839 C 13.122 11.749 13.302 12.483 13.147 13.139 C 18.284 10.024 12.967 6.806 12.105 7.179 C 11.886 7.243 11.834 7.063 12.22 6.947 C 13.533 6.458 11.448 5.737 10.933 5.403 C 11.371 4.321 10.56 3.072 12.272 1.927 Z M 15.327 11.708 C 16.357 17.347 11.311 16.639 10.706 16.986 C 10.229 17.36 9.908 17.501 9.534 18.132 C 9.238 16.304 10.101 15.39 10.989 15.043 C 11.839 14.759 13.01 15.686 15.314 11.721" fill="#000000"/>
</svg>