<svg xmlns="http://www.w3.org/2000/svg" viewBox="0 0 20 20">
	<path d="M 7.686 4.242 L 9.991 1.95 L 12.372 4.28 L 11.793 4.795 L 9.991 2.967 L 8.176 4.769 Z M 8.343 5.091 L 9.991 3.521 L 11.664 5.091 L 11.072 5.902 L 10.274 5.22 L 10.274 7.14 L 9.759 7.14 L 9.759 5.22 L 8.948 5.928 Z M 4.533 5.104 L 5.253 4.357 L 6.644 5.812 L 7.777 4.834 L 8.356 5.555 L 8.343 5.555 C 8.456 5.684 8.082 5.916 8.172 6.25 C 8.237 6.521 8.688 7.036 8.906 7.229 L 8.894 7.848 L 14.252 12.905 L 14.741 14.514 L 12.913 14.064 L 7.764 8.683 L 7.107 8.696 L 5.949 7.885 L 5.472 8.207 L 4.816 7.46 L 5.833 6.456 Z M 14.638 4.499 L 15.381 5.199 L 14.032 6.585 L 15.18 7.608 L 14.517 8.331 L 13.994 7.963 C 13.543 8.195 13.17 8.44 12.809 8.71 L 12.126 8.801 L 11.354 9.625 L 10.233 8.62 L 11.019 7.899 C 11.006 7.7143 10.941 7.577 10.98 7.345 C 11.289 7.101 11.817 6.457 11.791 6.135 C 11.779 5.98 11.6283 5.8343 11.566 5.611 L 12.199 4.878 L 13.285 5.877 Z M 8.646 10.24 L 9.834 11.322 L 7.077 14.058 L 5.21 14.545 L 5.634 13.04 Z M 6.679 8.621 C 6.308 8.952 6.057 9.183 5.786 9.584 L 7.794 9.564 L 7.804 9.956 L 5.816 9.986 C 6.188 10.588 6.589 10.909 7.061 11.291 L 6.388 11.913 C 5.736 11.461 5.375 11.05 4.953 10.407 L 2.614 10.427 C 2.253 10.417 2.243 9.203 2.604 9.203 L 4.913 9.193 C 5.244 8.831 5.505 8.55 5.927 8.159 Z M 13.967 8.301 C 14.549 8.562 14.83 8.913 15.181 9.274 L 17.379 9.214 C 17.781 9.214 17.761 10.429 17.419 10.429 L 15.121 10.399 C 14.659 11.041 14.338 11.443 13.716 11.844 L 13.073 11.292 C 13.625 10.86 13.926 10.529 14.258 9.947 L 12.29 9.967 L 12.27 9.606 L 14.238 9.596 C 14.037 9.214 13.736 8.963 13.374 8.682 Z M 9.78 12.4 L 10.252 12.4 L 10.222 14.318 L 11.406 13.133 L 12.37 14.017 L 10.051 16.225 L 7.662 14.047 L 8.576 13.143 L 9.78 14.308 L 9.78 14.288 Z M 7.482 14.328 C 8.355 15.211 9.148 16.004 10.081 16.647 C 10.985 15.954 11.718 15.151 12.541 14.288 L 13.193 14.719 C 12.25 15.643 11.095 16.847 10.021 17.791 C 8.897 16.847 7.863 15.663 6.839 14.719 Z" fill="#000000"/>
</svg>