<svg xmlns="http://www.w3.org/2000/svg" viewBox="0 0 20 20">
	<path d="M 10.474 1.05 C 9.664 1.426 9.965 4.271 8.081 5.157 C 4.445 6.645 4.181 8.492 4.181 10.112 C 4.407 13.748 8.025 14.37 9.155 15.142 L 9.08 13.296 C 7.139 12.712 5.18 10.432 6.894 8.134 C 7.78 6.89 8.609 7.06 9.532 6.118 L 9.588 7.248 C 5.764 8.039 6.103 11.864 9.475 12.486 L 9.626 18.985 C 10.455 18.401 9.984 15.707 12.245 14.652 C 14.43 13.541 15.881 12.26 15.919 9.773 C 15.9 7.644 13.526 5.534 10.888 4.987 L 10.888 6.702 C 14.411 7.55 14.035 11.073 12.791 12.297 C 12.056 13.107 11.152 13.032 10.455 13.974 L 10.455 12.523 C 13.394 12.278 14.637 8.341 10.512 7.248 Z M 9.381 7.926 L 9.419 11.977 C 7.101 11.336 6.423 8.68 9.4 7.926 M 10.625 7.907 C 13.658 8.661 12.791 11.619 10.643 11.977 Z" fill="#000000"/>
</svg>