<svg xmlns="http://www.w3.org/2000/svg" viewBox="0 0 20 20">
	<path d="M 8.856 2.977 L 5.404 6.906 L 4.876 6.893 L 4.193 7.653 L 2.481 8.322 L 3.73 9.288 L 4.528 12.341 L 5.971 9.481 L 6.911 11.207 C 7.285 11.645 7.336 11.774 6.769 12.212 C 7.156 13.719 6.95 14.388 5.34 14.157 L 8.07 16.011 L 10.079 18.652 L 11.045 17.364 L 14.175 15.754 L 12.797 15.509 L 13.042 13.191 L 13.66 12.032 L 13.724 11.426 C 14.986 14.494 14.774 12.923 15.347 14.221 C 15.986 10.014 16.338 12.422 16.133 9.25 L 17.665 8.374 L 15.18 6.931 L 14.278 6.918 L 14.252 5.721 L 10.981 2.295 L 13.415 6.004 L 13.029 7.614 L 14.626 7.82 C 14.922 7.91 15.476 9.61 15.205 9.932 L 14.536 10.821 C 14.651 11.285 14.793 11.864 14.587 11.825 C 14.342 11.787 14.394 11.388 14.317 10.95 L 13.428 8.863 L 12.578 11.722 C 12.535 12.07 12.511 12.545 12.353 12.369 L 10.776 10.523 C 10.648 10.361 10.539 10.285 10.607 10.083 C 10.695 9.867 11.548 8.044 12.063 6.815 L 10.466 7.781 L 9.925 7.446 L 10.337 0.479 L 7.954 9.378 C 8.972 8.168 10.582 7.395 9.139 10.782 L 10.582 12.135 L 8.688 14.955 L 9.384 16.179 C 7.967 15.161 8.019 14.878 8.353 12.894 L 8.92 12.392 L 7.259 10.847 L 7.13 7.086 L 4.863 9.791 L 4.76 8.052 L 6.151 7.768 Z M 12.094 13.853 L 11.813 15.97 L 10.669 16.532 Z" fill="#000000"/>
</svg>