<svg xmlns="http://www.w3.org/2000/svg" viewBox="0 0 20 20">
	<path d="M 3.402 12.506 C 1.688 8.455 7.528 3.085 9.525 6.043 C 12.992 5.629 14.763 7.532 11.522 10.358 C 11.861 9.001 11.334 7.607 9.488 7.588 C 8.263 6.251 4.514 7.098 3.421 12.543 M 13.576 2.558 C 16.28 6.502 15.018 8.675 12.464 10.245 C 11.617 11.055 11.014 11.356 10.467 11.017 C 10.072 10.772 10.637 10.188 11.146 10.019 C 10.769 8.003 6.398 7.419 5.022 11.055 C 3.478 15.105 5.983 15.162 8.225 13.975 C 8.225 14.333 8.395 14.691 8.696 14.653 C 9.073 17.611 13.161 17.065 14.047 14.314 C 15.403 13.617 17.287 12.506 16.685 7.946 C 16.006 10.659 15.347 12.43 12.954 12.524 C 13.199 14.39 9.299 17.121 9.224 13.184 C 9.236 12.983 9.04 12.707 8.753 12.75 C 5.83 13.081 6.722 10.71 9.646 10.522 C 8.006 12.341 10.351 12.805 12.892 11.886 C 14.122 11.376 19.305 7.412 13.564 2.567" fill="#000000"/>
</svg>