<svg xmlns="http://www.w3.org/2000/svg" viewBox="0 0 20 20">
	<path d="M 3.541 5.706 L 7.276 6.157 C 6.834 6.46 6.4773 6.4577 6.092 6.633 C 6.397 6.992 6.741 6.891 7.155 6.828 C 6.983 7.618 7.077 8.134 7.968 8.486 C 7.992 7.704 8.219 7.352 8.461 6.839 C 9.087 7.727 9.157 8.572 9.015 9.312 C 8.782 9.072 8.625 8.963 8.423 8.99 C 8.377 9.267 8.525 9.53 8.706 9.763 C 8.435 10.024 8.334 10.242 8.371 10.562 C 8.686 10.493 8.826 10.391 9.015 10.201 C 9.077 11.361 8.967 12.002 8.513 12.674 C 8.068 12.244 7.857 11.681 7.911 11.032 C 7.301 11.416 6.973 11.853 7.109 12.635 C 6.668 12.565 6.387 12.557 5.988 12.847 C 6.59 12.878 6.95 13.058 7.199 13.356 L 3.516 13.859 L 5.216 10.549 C 5.347 10.837 5.433 11.298 5.229 11.799 C 5.581 11.619 5.722 11.384 5.86 10.884 C 6.316 11.259 7.02 11.204 7.676 10.768 C 6.707 10.626 5.972 10.336 5.228 9.815 C 5.925 9.218 6.598 8.898 7.508 8.681 C 7.03 8.376 6.569 8.353 5.841 8.58 C 5.763 8.267 5.677 8.009 5.349 7.665 C 5.302 8.048 5.45 8.533 5.203 9.016 Z M 16.405 13.859 L 12.67 13.408 C 13.112 13.105 13.4687 13.1073 13.854 12.932 C 13.549 12.573 13.205 12.674 12.791 12.737 C 12.963 11.947 12.869 11.431 11.978 11.079 C 11.954 11.861 11.727 12.213 11.485 12.726 C 10.859 11.838 10.789 10.993 10.931 10.253 C 11.164 10.493 11.321 10.602 11.523 10.575 C 11.569 10.298 11.421 10.035 11.24 9.802 C 11.511 9.541 11.612 9.323 11.575 9.003 C 11.26 9.072 11.12 9.174 10.931 9.364 C 10.869 8.204 10.979 7.563 11.433 6.891 C 11.878 7.321 12.089 7.884 12.035 8.533 C 12.645 8.149 12.973 7.712 12.837 6.93 C 13.278 7 13.559 7.008 13.958 6.718 C 13.356 6.687 12.996 6.507 12.747 6.209 L 16.43 5.706 L 14.73 9.016 C 14.599 8.728 14.513 8.267 14.717 7.766 C 14.365 7.946 14.224 8.181 14.086 8.681 C 13.63 8.306 12.926 8.361 12.27 8.797 C 13.239 8.939 13.974 9.229 14.718 9.75 C 14.021 10.347 13.348 10.667 12.438 10.884 C 12.916 11.189 13.377 11.212 14.105 10.985 C 14.183 11.298 14.269 11.556 14.597 11.9 C 14.644 11.517 14.496 11.032 14.743 10.549 Z M 9.959 2.1 L 12.133 5.98 C 11.429 6.042 10.963 5.194 10.657 5.1 C 10.692 5.661 10.909 6.085 11.207 6.417 C 10.875 6.6 10.52 6.886 10.295 7.32 L 10.268 9.151 C 10.535 9.369 10.764 9.575 10.821 9.838 C 10.707 10.124 10.558 10.375 10.254 10.583 L 10.296 12.39 C 10.553 12.814 10.838 13.085 11.269 13.294 C 10.873 13.634 10.644 14.148 10.748 14.524 C 11.061 14.343 11.332 13.759 12.082 13.704 L 9.97 17.637 L 7.871 13.767 C 8.823 13.787 8.795 14.433 9.169 14.546 C 9.261 14.093 9.115 13.891 8.691 13.307 C 9.08 13.161 9.316 12.911 9.594 12.432 L 9.615 10.596 C 9.368 10.341 9.242 10.181 9.07 9.895 C 9.15 9.552 9.368 9.311 9.608 9.151 L 9.581 7.321 C 9.405 6.945 9.148 6.611 8.7 6.382 C 9.02 6.119 9.18 5.787 9.169 5.157 C 8.892 5.25 8.718 5.945 7.864 5.97 Z" fill="#000000"/>
</svg>