<svg xmlns="http://www.w3.org/2000/svg" viewBox="0 0 20 20">
	<path d="M 8.528 4.409 L 8.264 4.239 L 8.056 5.031 L 9.075 8.311 L 9.527 8.726 L 9.565 8.179 L 9.659 8.236 L 9.64 9.065 L 10.036 9.876 L 10.602 9.499 L 10.564 7.727 L 10.847 8.783 L 11.167 8.632 L 11.789 3.843 L 11.26 3.378 L 11.043 3.675 L 10.94 5.69 L 10.734 5.793 L 10.903 2.976 L 10.47 2.75 L 10.432 1.864 L 10.111 1.656 L 9.584 2.071 L 9.584 2.957 L 9.734 5.408 L 9.225 2.976 L 8.773 3.165 L 8.528 3.937 L 9.018 6.03 Z M 6.41 5.464 L 8.13 6.772 L 8.717 8.183 L 6.984 7.139 Z M 11.583 8.109 L 12.126 6.552 L 13.846 5.406 L 13.023 7.228 Z M 11.627 8.781 L 14.596 7.077 L 15.742 6.974 L 15.786 7.297 L 15.227 7.856 L 13.758 8.385 L 13.655 8.576 L 14.772 8.15 L 15.257 8.208 L 15.227 8.634 L 14.478 8.987 L 15.933 8.825 L 16.462 8.958 L 16.491 9.09 L 17.094 9.119 L 17.182 9.252 L 17.505 9.296 L 17.534 9.56 L 16.697 10.016 L 13.831 10.074 L 16.403 10.192 L 16.653 10.398 L 16.947 10.398 L 16.902 10.692 L 16.197 11.103 L 12.715 11.103 L 12.127 10.603 L 12.421 10.324 L 11.613 10.31 L 11.539 10.089 L 11.216 10.03 L 11.216 9.722 L 12.406 9.134 L 12.186 9.016 L 11.965 9.149 L 11.598 9.09 L 11.598 9.061 Z M 11.275 11.088 L 12.95 11.882 L 13.787 13.586 L 12.039 12.719 L 12.039 12.69 Z M 13.978 13.704 L 14.787 13.88 L 14.963 14.835 L 13.934 14.468 L 13.934 14.468 Z M 8.806 11.176 L 7.895 12.881 L 6.426 13.63 L 7.057 11.926 L 6.999 11.955 Z M 6.176 13.645 L 6.161 14.424 L 5.221 14.806 L 5.235 13.983 L 5.191 13.954 Z M 8.865 10.339 C 9.276 9.927 9.849 10.31 10.055 10.633 C 10.349 10.383 10.643 9.898 11.245 10.31 C 10.569 10.912 10.775 12.176 10.775 15.07 C 10.819 15.952 12.347 16.834 13.333 17.019 L 13.324 17.367 L 6.918 17.385 L 6.9 17.019 C 7.675 16.848 9.203 16.128 9.232 15.144 C 9.262 12.058 9.394 10.912 8.85 10.354 M 4.328 6.962 L 5.576 7.1 L 8.507 8.863 L 8.496 9.161 L 7.752 9.058 L 7.729 9.195 L 8.908 9.756 L 8.942 9.939 L 8.187 10.397 L 7.74 10.305 L 7.752 10.431 L 7.935 10.626 L 7.454 11.073 L 3.859 11.164 L 3.115 10.763 L 3.103 10.454 L 3.687 10.225 L 6.389 10.145 L 6.401 10.042 L 3.664 10.042 L 2.462 9.63 L 2.52 9.287 L 3.206 9.092 L 3.722 9.092 L 3.859 8.863 L 4.752 8.806 L 5.599 9.058 L 4.786 8.634 L 4.786 8.325 L 5.096 8.107 L 5.668 8.279 L 6.343 8.588 L 6.55 8.371 L 5.027 7.89 L 4.214 7.329 L 4.203 7.134 Z" fill="#000000"/>
</svg>